<?xml version="1.0" encoding="UTF-8" standalone="no"?>
<svg
   width="178.12048"
   height="54.844025"
   id="screenshot-d5a0597e-03c0-800c-8007-7edd903049d4"
   viewBox="0 0 178.12048 54.844025"
   fill="none"
   version="1.1"
   sodipodi:docname="groupbxs.svg"
   xmlns:inkscape="http://www.inkscape.org/namespaces/inkscape"
   xmlns:sodipodi="http://sodipodi.sourceforge.net/DTD/sodipodi-0.dtd"
   xmlns="http://www.w3.org/2000/svg"
   xmlns:svg="http://www.w3.org/2000/svg">
  <defs
     id="defs45" />
  <sodipodi:namedview
     id="namedview43"
     pagecolor="#ffffff"
     bordercolor="#000000"
     borderopacity="0.25"
     inkscape:showpageshadow="2"
     inkscape:pageopacity="0.0"
     inkscape:pagecheckerboard="0"
     inkscape:deskcolor="#d1d1d1"
     showgrid="false" />
  <style
     id="style2">/* latin-ext */
@font-face {
  font-family: 'Courgette';
  font-style: normal;
  font-weight: 400;
  font-display: block;
  src: url(http://localhost:6080/internal/gfonts/font/courgette/v19/wEO_EBrAnc9BLjLQAUk1WPoK7Es.woff2) format('woff2');
  unicode-range: U+0100-02BA, U+02BD-02C5, U+02C7-02CC, U+02CE-02D7, U+02DD-02FF, U+0304, U+0308, U+0329, U+1D00-1DBF, U+1E00-1E9F, U+1EF2-1EFF, U+2020, U+20A0-20AB, U+20AD-20C0, U+2113, U+2C60-2C7F, U+A720-A7FF;
}
/* latin */
@font-face {
  font-family: 'Courgette';
  font-style: normal;
  font-weight: 400;
  font-display: block;
  src: url(http://localhost:6080/internal/gfonts/font/courgette/v19/wEO_EBrAnc9BLjLQAUk1VvoK.woff2) format('woff2');
  unicode-range: U+0000-00FF, U+0131, U+0152-0153, U+02BB-02BC, U+02C6, U+02DA, U+02DC, U+0304, U+0308, U+0329, U+2000-206F, U+20AC, U+2122, U+2191, U+2193, U+2212, U+2215, U+FEFF, U+FFFD;
}

/* cyrillic-ext */
@font-face {
  font-family: 'Martian Mono';
  font-style: normal;
  font-weight: 400;
  font-stretch: 100%;
  font-display: block;
  src: url(http://localhost:6080/internal/gfonts/font/martianmono/v6/2V08KIcADoYhV6w87xrTKjs4CYElh_VS9YA4TlTnQzaVMIE6j15dYY1qu_6cBb9Udg.woff2) format('woff2');
  unicode-range: U+0460-052F, U+1C80-1C8A, U+20B4, U+2DE0-2DFF, U+A640-A69F, U+FE2E-FE2F;
}
/* cyrillic */
@font-face {
  font-family: 'Martian Mono';
  font-style: normal;
  font-weight: 400;
  font-stretch: 100%;
  font-display: block;
  src: url(http://localhost:6080/internal/gfonts/font/martianmono/v6/2V08KIcADoYhV6w87xrTKjs4CYElh_VS9YA4TlTnQzaVMIE6j15dYY1qu_6VBb9Udg.woff2) format('woff2');
  unicode-range: U+0301, U+0400-045F, U+0490-0491, U+04B0-04B1, U+2116;
}
/* latin-ext */
@font-face {
  font-family: 'Martian Mono';
  font-style: normal;
  font-weight: 400;
  font-stretch: 100%;
  font-display: block;
  src: url(http://localhost:6080/internal/gfonts/font/martianmono/v6/2V08KIcADoYhV6w87xrTKjs4CYElh_VS9YA4TlTnQzaVMIE6j15dYY1qu_6fBb9Udg.woff2) format('woff2');
  unicode-range: U+0100-02BA, U+02BD-02C5, U+02C7-02CC, U+02CE-02D7, U+02DD-02FF, U+0304, U+0308, U+0329, U+1D00-1DBF, U+1E00-1E9F, U+1EF2-1EFF, U+2020, U+20A0-20AB, U+20AD-20C0, U+2113, U+2C60-2C7F, U+A720-A7FF;
}
/* latin */
@font-face {
  font-family: 'Martian Mono';
  font-style: normal;
  font-weight: 400;
  font-stretch: 100%;
  font-display: block;
  src: url(http://localhost:6080/internal/gfonts/font/martianmono/v6/2V08KIcADoYhV6w87xrTKjs4CYElh_VS9YA4TlTnQzaVMIE6j15dYY1qu_6RBb8.woff2) format('woff2');
  unicode-range: U+0000-00FF, U+0131, U+0152-0153, U+02BB-02BC, U+02C6, U+02DA, U+02DC, U+0304, U+0308, U+0329, U+2000-206F, U+20AC, U+2122, U+2191, U+2193, U+2212, U+2215, U+FEFF, U+FFFD;
}
</style>
  <g
     id="shape-d5a0597e-03c0-800c-8007-7edd903049d4"
     rx="0"
     ry="0"
     transform="translate(3.7599795,-15.184403)">
    <g
       class="text-container"
       x="0"
       y="0"
       width="172"
       height="84"
       rx="0"
       ry="0"
       id="g14"
       inkscape:export-filename="bxlogo.svg"
       inkscape:export-xdpi="96"
       inkscape:export-ydpi="96">
      <defs
         id="defs9" />
      <g
         class="fills"
         id="fills-d5a0597e-03c0-800c-8007-7edd3b866883">
        <g
           aria-label="Xiomi"
           id="text11"
           style="font-size:70px;font-family:Courgette;dominant-baseline:ideographic;white-space:pre;fill:#4b0028">
          <path
             d="m 31.549646,70.028425 q -9.22904,0 -13.023201,-17.56836 -3.862525,5.844727 -8.8872247,11.210938 -6.0159673,6.323243 -9.50249377,6.323243 -1.98253463,0 -2.80289383,-0.649415 -2.1876245,-1.743164 0,-2.802734 1.2305388,-0.546875 3.9308877,-2.802734 2.7003489,-2.25586 5.298153,-4.956055 6.2894206,-6.459961 10.3228526,-13.261719 -1.333083,-6.015626 -1.743263,-11.791993 -0.41018,-5.810547 -0.41018,-7.177734 0,-2.22168 0.170909,-3.417969 0.170908,-1.230469 0.888722,-2.460938 0.751996,-1.264648 1.845808,-2.1875 2.255988,-1.948242 5.058882,-1.948242 0.581087,0 0.751996,0.307617 0.205089,0.307617 0.205089,0.888672 0,0.888672 -0.341816,3.24707 -0.683633,4.648438 -0.683633,8.066407 0,4.990234 0.444362,9.501953 l 6.323602,-8.78418 q 8.408681,-11.552734 14.45883,-12.919922 0.375998,-0.06836 0.820359,-0.170898 0.478543,-0.136719 1.162176,-0.136719 0.683632,0 1.572355,0.205078 0.922904,0.205078 1.606536,0.546875 1.572356,0.820312 0.957086,1.879883 -0.102545,0.205078 -0.546906,0.444336 -0.444361,0.205078 -1.196357,0.615234 -2.255988,1.230469 -4.341067,2.905274 -5.571606,4.033203 -14.561376,15.859375 l -4.81961,6.5625 q 3.042165,13.774415 7.554141,17.56836 1.059631,0.888672 2.050898,0.888672 0.991267,0 1.606537,-0.170898 0.615269,-0.205079 1.127993,-0.444336 l 0.82036,-0.410157 q 0.375998,-0.205078 0.717814,-0.205078 0.717814,0 0.717814,0.751953 0,2.939454 -3.076347,5.058594 -2.085079,1.435547 -4.477794,1.435547 z"
             id="path919" />
          <path
             d="m 59.612766,26.312604 q -0.751996,0.786133 -1.709081,1.298828 -0.957086,0.478516 -2.016717,0.615234 -1.05963,0.102539 -2.016716,-0.341797 -0.922904,-0.444336 -1.606537,-1.264648 -1.46981,-1.708985 -1.46981,-3.452149 0,-1.743164 0.546906,-2.597656 0.581088,-0.888672 1.435629,-1.435547 1.640718,-1.05957 3.076347,-1.05957 1.46981,0 2.255987,0.205078 0.82036,0.205078 1.503992,0.683594 1.6749,1.127929 1.6749,2.768554 0,1.606446 -0.478543,2.700196 -0.444361,1.05957 -1.196357,1.879883 z m -7.007234,36.982423 q 0.888722,0 0.888722,1.162109 0,1.538086 -1.401447,3.178711 -2.050898,2.392578 -5.503243,2.392578 -3.965069,0 -5.434879,-3.21289 -0.546906,-1.12793 -0.546906,-2.734376 0,-1.606445 0.546906,-3.554687 0.581088,-1.982422 1.401447,-4.135742 0.854541,-2.187501 1.845808,-4.40918 l 1.811626,-4.306641 q 1.982535,-4.819336 1.982535,-6.357422 0,-1.538086 -0.341816,-2.016602 -0.307635,-0.512695 -0.683633,-0.786133 l -0.683633,-0.478515 q -0.341816,-0.239258 -0.341816,-0.820313 0,-0.615234 0.444361,-1.162109 0.478543,-0.546875 1.230539,-0.957031 1.538174,-0.786133 3.589071,-0.786133 5.0247,0 5.0247,2.631836 0,3.076172 -1.606536,7.041016 -1.606537,3.930664 -2.734531,6.357422 l -2.050898,4.716797 q -2.255988,5.195312 -2.255988,7.485351 0,1.503907 1.503992,1.503907 1.46981,0 2.221806,-0.375977 0.751996,-0.375976 1.093813,-0.375976 z"
             id="path921" />
          <path
             d="m 64.364014,67.36241 q -1.435628,-1.367188 -2.255988,-3.452149 -0.820359,-2.119141 -0.85454,-4.990235 -0.03418,-2.871093 0.683632,-5.810547 0.751996,-2.939453 2.08508,-5.673828 1.367265,-2.734375 3.247255,-5.126953 1.914171,-2.392578 4.204341,-4.169922 4.990518,-3.828125 10.357034,-3.828125 7.041416,0 9.536675,6.186523 1.777445,4.47754 0.20509,10.834962 -1.435628,5.844726 -5.263971,10.732422 -3.794161,4.887695 -8.955588,6.938477 -2.597804,1.02539 -5.127245,1.02539 -2.495259,0 -4.477793,-0.649414 -1.948353,-0.649414 -3.383982,-2.016601 z m 6.528692,-16.577149 q -1.025449,2.529297 -1.640719,5.195312 -0.581087,2.666016 -0.546906,5.058594 0.03418,2.358399 0.717815,3.725586 0.717814,1.333008 2.290169,1.333008 1.572355,0 3.076347,-1.05957 1.538173,-1.09375 2.973802,-2.871094 1.435628,-1.777344 2.700349,-4.101563 1.26472,-2.324219 2.221806,-4.853515 2.085079,-5.50293 2.016716,-9.775391 0,-3.759766 -1.538173,-4.785157 -0.61527,-0.410156 -1.743263,-0.410156 -1.093813,0 -2.529441,1.025391 -1.435629,0.991211 -2.871257,2.700195 -1.435629,1.708984 -2.768713,3.999024 -1.333083,2.290039 -2.358532,4.819336 z"
             id="path923" />
          <path
             d="m 122.95133,40.770612 q -1.98254,0 -7.24651,5.742188 -3.93089,4.477539 -5.70833,6.733398 l -3.07635,3.896485 q -1.98253,3.759765 -3.11053,6.254883 l -1.8458,3.964844 q -0.71782,1.469726 -1.26472,2.084961 -0.51273,0.581054 -1.435633,0.581054 -0.888722,0 -1.743263,-0.341797 -0.820359,-0.307617 -1.435628,-0.820312 -1.298902,-1.09375 -1.298902,-2.392578 0,-0.512696 0.751996,-2.016602 l 1.298902,-2.768555 q 0.615269,-1.230469 1.435628,-3.144531 l 1.91417,-4.682617 q 4.03343,-10.083008 4.03343,-13.022462 0,-1.572265 -1.02544,-2.324219 l -0.68364,-0.478515 q -0.34181,-0.239258 -0.34181,-0.820313 0,-0.615234 0.44436,-1.162109 0.47854,-0.546875 1.23054,-0.957031 1.53817,-0.786133 3.07634,-0.786133 1.57236,0 2.46108,0.341797 0.88872,0.341797 1.53817,0.922851 1.29891,1.196289 1.29891,2.495118 0,1.298828 -0.34182,2.631836 -0.34182,1.298828 -0.85454,2.666015 -0.51273,1.333008 -1.09381,2.597657 -1.36727,2.939453 -1.70908,3.623047 -0.30764,0.649414 -0.17091,0.478515 6.25524,-8.100586 7.51996,-9.570313 2.63198,-3.041992 4.10179,-4.169922 2.70035,-2.016601 5.09307,-2.016601 2.42689,0 3.86252,1.503906 1.43563,1.503906 1.43563,3.964844 0,2.15332 -1.09381,5.058594 -1.09382,2.905273 -1.46981,4.067383 l 5.0247,-6.63086 2.80289,-3.349609 q 2.52944,-2.836914 4.44361,-3.725586 1.91417,-0.888672 3.11053,-0.888672 1.23054,0 2.39271,0.444336 1.19636,0.444336 2.01672,1.264648 1.74326,1.674805 1.74326,4.44336 0,2.666015 -1.23053,5.46875 -1.23054,2.802734 -2.15345,4.614258 -0.9229,1.777344 -1.77744,3.588867 -2.49526,5.434571 -2.49526,8.066407 0,1.845703 1.50399,1.845703 1.43563,0 2.5978,-0.615235 1.19636,-0.615234 1.53818,-0.615234 0.71781,0 0.71781,0.717773 0,3.041993 -3.11053,5.092774 -2.08508,1.401367 -3.82834,1.401367 -1.70908,0 -2.76871,-0.410156 -1.05963,-0.410156 -1.91417,-1.298828 -1.91417,-1.982422 -1.91417,-4.956055 0,-2.973633 0.75199,-5.46875 0.752,-2.495117 1.77745,-4.819336 1.02545,-2.358399 2.05089,-4.306641 1.05963,-1.982422 1.60654,-3.144531 1.09381,-2.392579 1.09381,-3.520508 0,-1.333008 -1.40144,-1.333008 -1.84581,0 -6.63124,6.118164 -3.62325,4.750977 -5.0247,6.835938 l -2.35853,3.417969 q -1.98254,3.759765 -3.04217,6.254883 l -1.74326,3.964844 q -0.64945,1.469726 -1.128,2.084961 -0.47854,0.581054 -1.33308,0.581054 -0.85454,0 -1.6749,-0.273437 -0.78618,-0.273438 -1.36726,-0.717774 -1.33309,-0.991211 -1.33309,-2.084961 0,-1.127929 0.71782,-3.041992 0.75199,-1.948242 1.8458,-4.34082 l 4.78543,-10.117188 q 2.56363,-5.639649 2.56363,-7.143555 0,-1.538086 -1.40145,-1.538086 z m 3.38398,9.638672 q 0.0342,0 0.0342,-0.03418 l 0.0342,-0.06836 q -0.0684,0.06836 -0.0684,0.10254 z"
             id="path925" />
          <path
             d="m 172.68561,26.312604 q -0.752,0.786133 -1.70908,1.298828 -0.95709,0.478516 -2.01672,0.615234 -1.05963,0.102539 -2.01672,-0.341797 -0.9229,-0.444336 -1.60653,-1.264648 -1.46981,-1.708985 -1.46981,-3.452149 0,-1.743164 0.5469,-2.597656 0.58109,-0.888672 1.43563,-1.435547 1.64072,-1.05957 3.07635,-1.05957 1.46981,0 2.25599,0.205078 0.82036,0.205078 1.50399,0.683594 1.6749,1.127929 1.6749,2.768554 0,1.606446 -0.47855,2.700196 -0.44436,1.05957 -1.19635,1.879883 z m -7.00724,36.982423 q 0.88873,0 0.88873,1.162109 0,1.538086 -1.40145,3.178711 -2.0509,2.392578 -5.50324,2.392578 -3.96507,0 -5.43488,-3.21289 -0.54691,-1.12793 -0.54691,-2.734376 0,-1.606445 0.54691,-3.554687 0.58108,-1.982422 1.40144,-4.135742 0.85454,-2.187501 1.84581,-4.40918 l 1.81163,-4.306641 q 1.98253,-4.819336 1.98253,-6.357422 0,-1.538086 -0.34181,-2.016602 -0.30764,-0.512695 -0.68364,-0.786133 l -0.68363,-0.478515 q -0.34182,-0.239258 -0.34182,-0.820313 0,-0.615234 0.44437,-1.162109 0.47854,-0.546875 1.23053,-0.957031 1.53818,-0.786133 3.58908,-0.786133 5.0247,0 5.0247,2.631836 0,3.076172 -1.60654,7.041016 -1.60654,3.930664 -2.73453,6.357422 l -2.0509,4.716797 q -2.25599,5.195312 -2.25599,7.485351 0,1.503907 1.50399,1.503907 1.46982,0 2.22181,-0.375977 0.752,-0.375976 1.09381,-0.375976 z"
             id="path927" />
        </g>
      </g>
    </g>
    <g
       class="text-container"
       x="68"
       y="4"
       width="90"
       height="20"
       rx="0"
       ry="0"
       id="g38"
       transform="translate(-4.8928852,8.4673468)">
      <defs
         id="defs22" />
      <g
         class="fills"
         id="fills-d5a0597e-03c0-800c-8007-7edd5f1e5ba7">
        <g
           aria-label="Boutique"
           id="text24"
           style="font-size:16px;font-family:'Martian Mono';dominant-baseline:ideographic;white-space:pre;fill:#e45f7a">
          <path
             d="M 69.952202,20.333057 V 7.5330565 h 3.808395 q 1.9362,0 3.056316,0.9280001 1.120116,0.928 1.120116,2.5440004 0,0.928 -0.496051,1.616 -0.48005,0.688 -1.360141,0.976 v 0.256 q 0.992103,0.304 1.536159,1.088 0.544057,0.784 0.544057,1.872 0,1.632 -1.184123,2.576 -1.168121,0.944 -3.216333,0.944 z m 1.824189,-1.696 h 1.984206 q 1.248129,0 1.904197,-0.512 0.67207,-0.528 0.67207,-1.472 0,-0.944 -0.67207,-1.456 -0.656068,-0.528 -1.904197,-0.528 h -1.984206 z m 0,-5.568 h 1.984206 q 1.184122,0 1.808187,-0.496 0.624065,-0.496 0.624065,-1.424 0,-0.928 -0.624065,-1.4240004 -0.624065,-0.496 -1.808187,-0.496 h -1.984206 z"
             id="path930" />
          <path
             d="m 84.801753,20.589057 q -1.328138,0 -2.304239,-0.608 -0.976101,-0.624 -1.520157,-1.76 -0.528055,-1.136 -0.528055,-2.688 0,-1.552 0.528055,-2.688 0.544056,-1.136 1.520157,-1.744 0.976101,-0.624 2.304239,-0.624 1.344139,0 2.304239,0.624 0.976101,0.608 1.504155,1.744 0.544057,1.136 0.544057,2.688 0,1.552 -0.544057,2.688 -0.528054,1.136 -1.504155,1.76 -0.9601,0.608 -2.304239,0.608 z m 0,-1.648 q 1.232128,0 1.920199,-0.896 0.688071,-0.896 0.688071,-2.512 0,-1.616 -0.688071,-2.512 -0.688071,-0.896 -1.920199,-0.896 -1.232128,0 -1.920199,0.896 -0.688071,0.896 -0.688071,2.512 0,1.616 0.688071,2.512 0.688071,0.896 1.920199,0.896 z"
             id="path932" />
          <path
             d="m 99.795319,10.733057 v 9.6 h -1.760183 v -0.72 h -0.480049 q -0.368039,0.464 -0.944098,0.72 -0.560058,0.256 -1.264131,0.256 -0.992103,0 -1.744181,-0.448 -0.736076,-0.448 -1.152119,-1.264 -0.416043,-0.816 -0.416043,-1.92 v -6.224 h 1.760182 v 5.744 q 0,1.2 0.528055,1.824 0.544056,0.608 1.584164,0.608 1.040108,0 1.584164,-0.608 0.544056,-0.624 0.544056,-1.824 v -5.744 z"
             id="path934" />
          <path
             d="m 106.77205,8.2370566 v 2.4960004 h 4.32045 v 1.648 h -4.32045 v 4.8 q 0,0.848 0.35204,1.312 0.35204,0.448 1.02411,0.448 0.70407,0 1.08811,-0.48 0.40004,-0.496 0.59206,-1.488 h 1.55216 q -0.08,1.76 -0.92809,2.688 -0.84809,0.928 -2.36825,0.928 -1.47215,0 -2.27223,-0.88 -0.80009,-0.88 -0.80009,-2.464 v -4.864 h -2.11222 v -1.648 h 2.11222 V 8.2370566 Z"
             id="path936" />
          <path
             d="m 115.12493,10.733057 h 4.67249 v 7.952 h 2.8963 v 1.648 h -7.56879 v -1.648 h 2.9123 v -6.304 h -2.9123 z m 3.66438,-1.4240004 q -0.62406,0 -0.9761,-0.336 -0.35204,-0.352 -0.35204,-0.96 0,-0.6080001 0.35204,-0.9440001 0.35204,-0.352 0.9761,-0.352 0.62407,0 0.9761,0.352 0.35204,0.336 0.35204,0.9440001 0,0.608 -0.35204,0.96 -0.35203,0.336 -0.9761,0.336 z"
             id="path938" />
          <path
             d="m 131.78267,23.533057 v -4.08 h -0.48005 q -0.30403,0.512 -0.9441,0.832 -0.64007,0.304 -1.42415,0.304 -1.20012,0 -2.08021,-0.608 -0.86409,-0.624 -1.36014,-1.76 -0.48005,-1.136 -0.48005,-2.688 0,-1.552 0.48005,-2.688 0.49605,-1.136 1.36014,-1.744 0.88009,-0.624 2.08021,-0.624 0.78408,0 1.42415,0.304 0.64007,0.304 0.9441,0.832 h 0.48005 v -0.88 h 1.76018 v 12.8 z m -2.48026,-4.592 q 1.21613,0 1.8722,-0.896 0.67207,-0.896 0.67207,-2.512 0,-1.616 -0.67207,-2.512 -0.65607,-0.896 -1.8722,-0.896 -1.20012,0 -1.87219,0.896 -0.65607,0.896 -0.65607,2.512 0,1.616 0.65607,2.512 0.67207,0.896 1.87219,0.896 z"
             id="path940" />
          <path
             d="m 144.60001,10.733057 v 9.6 h -1.76018 v -0.72 h -0.48005 q -0.36804,0.464 -0.9441,0.72 -0.56006,0.256 -1.26413,0.256 -0.9921,0 -1.74418,-0.448 -0.73608,-0.448 -1.15212,-1.264 -0.41604,-0.816 -0.41604,-1.92 v -6.224 h 1.76018 v 5.744 q 0,1.2 0.52805,1.824 0.54406,0.608 1.58417,0.608 1.04011,0 1.58416,-0.608 0.54406,-0.624 0.54406,-1.824 v -5.744 z"
             id="path942" />
          <path
             d="m 149.27251,14.557057 h 5.7766 l -0.59207,0.832 q 0,-1.616 -0.57606,-2.464 -0.57605,-0.848 -1.68017,-0.848 -1.20012,0 -1.87219,0.896 -0.67207,0.88 -0.67207,2.48 0,1.712 0.67207,2.624 0.67207,0.912 1.9202,0.912 0.81608,0 1.42414,-0.4 0.60807,-0.416 1.02411,-1.2 h 1.64817 q -0.24002,0.992 -0.81608,1.712 -0.56006,0.72 -1.40815,1.104 -0.83209,0.384 -1.87219,0.384 -1.34414,0 -2.32024,-0.608 -0.9601,-0.608 -1.47216,-1.76 -0.51205,-1.152 -0.51205,-2.768 0,-1.536 0.51205,-2.64 0.52806,-1.12 1.48816,-1.728 0.9601,-0.608 2.25623,-0.608 1.23213,0 2.09622,0.576 0.86409,0.576 1.32814,1.68 0.46404,1.088 0.46404,2.64 0,0.176 -0.016,0.368 0,0.192 -0.016,0.368 h -6.7847 z"
             id="path944" />
        </g>
      </g>
      <g
         id="strokes-68d785ad-49a9-80e3-8007-7ee260dadd58-d5a0597e-03c0-800c-8007-7edd5f1e5ba7"
         class="strokes">
        <g
           class="inner-stroke-shape"
           id="g35">
          <defs
             id="defs31">
            <clipPath
               id="inner-stroke-render-3-0-d5a0597e-03c0-800c-8007-7edd5f1e5ba7-0">
              <use
                 href="#stroke-shape-render-3-0-d5a0597e-03c0-800c-8007-7edd5f1e5ba7-0"
                 id="use27" />
            </clipPath>
          </defs>
          <use
             href="#stroke-shape-render-3-0-d5a0597e-03c0-800c-8007-7edd5f1e5ba7-0"
             clip-path="url(#inner-stroke-render-3-0-d5a0597e-03c0-800c-8007-7edd5f1e5ba7-0)"
             id="use33" />
        </g>
      </g>
    </g>
  </g>
</svg>
